<svg width="36" height="36" viewBox="0 0 36 36" fill="none" xmlns="http://www.w3.org/2000/svg">
<rect width="36" height="36" rx="18" fill="#5542F6"/>
<path d="M18.0006 15.576C21.36 15.576 24.7138 15.576 28.0732 15.576C28.537 15.576 28.537 15.576 28.537 16.0064C28.537 16.302 28.5426 16.5976 28.5313 16.8933C28.5031 17.583 27.9658 18.0861 27.2136 18.1431C27.1174 18.1483 27.0269 18.1483 26.9308 18.1483C20.9754 18.1483 15.0257 18.1483 9.07035 18.1483C8.4143 18.1483 7.88833 17.9513 7.58858 17.386C7.52071 17.2615 7.48678 17.1111 7.48112 16.9762C7.4585 16.608 7.46981 16.2346 7.4585 15.8612C7.45284 15.6537 7.54333 15.5552 7.76956 15.576C7.86005 15.5811 7.95619 15.576 8.05234 15.576C11.3665 15.576 14.6807 15.576 18.0006 15.576Z" fill="white"/>
<path d="M7.46914 28.5C7.46914 28.1318 7.45783 27.7791 7.48045 27.4316C7.4861 27.359 7.63315 27.2553 7.72929 27.2449C7.96683 27.219 8.21002 27.219 8.44756 27.2397C8.75862 27.2605 8.85476 27.1308 8.84345 26.8663C8.83214 26.6381 8.84911 26.4099 8.8378 26.1766C8.83214 26.0158 8.91132 25.9484 9.07533 25.9432C9.17713 25.938 9.28459 25.938 9.38639 25.938C15.1268 25.938 20.8673 25.938 26.6134 25.938C26.7095 25.938 26.8 25.938 26.8962 25.938C27.0885 25.938 27.1733 26.021 27.1677 26.2025C27.1563 26.4203 27.1733 26.6433 27.162 26.8611C27.145 27.1256 27.2468 27.2553 27.5579 27.2345C27.7954 27.219 28.0386 27.2138 28.2762 27.2397C28.3723 27.2501 28.5193 27.359 28.525 27.4264C28.5533 27.7739 28.5363 28.1266 28.5363 28.4948C21.4951 28.5 14.4991 28.5 7.46914 28.5Z" fill="white"/>
<path d="M23.4863 14.1341C23.2432 14.3053 12.8312 14.3157 12.5088 14.1445C12.9499 13.9422 13.3628 13.74 13.787 13.5481C14.8446 13.0658 15.9022 12.5835 16.9654 12.1063C17.2086 11.9974 17.2934 11.8366 17.2878 11.5825C17.2765 10.0163 17.2821 8.44484 17.2821 6.8786C17.2821 6.75931 17.2821 6.63484 17.2821 6.5C19.1655 6.5 21.0092 6.5 22.8812 6.5C22.8925 6.59335 22.9038 6.6867 22.9038 6.77487C22.9038 7.85361 22.9038 8.93753 22.9038 10.0163C22.9038 10.3897 22.8812 10.4052 22.4796 10.4052C21.3542 10.4052 20.2287 10.4156 19.1032 10.4C18.7978 10.3949 18.696 10.4934 18.713 10.7683C18.7356 11.0743 18.7243 11.3802 18.7187 11.6862C18.713 11.8574 18.7696 11.9663 18.9505 12.0441C19.9177 12.4797 20.8791 12.9309 21.8462 13.3718C22.3892 13.6259 22.9321 13.8748 23.4863 14.1341Z" fill="white"/>
<path d="M13.0857 22.0276C13.0857 22.7796 13.08 23.5368 13.0914 24.2888C13.097 24.5378 12.9896 24.6415 12.7237 24.6363C12.0168 24.6363 11.3098 24.6311 10.6029 24.6363C10.3767 24.6363 10.2805 24.5533 10.2805 24.3459C10.2805 22.8004 10.2805 21.2497 10.2805 19.7042C10.2805 19.5071 10.3654 19.4138 10.5972 19.4138C11.3042 19.4241 12.0111 19.4241 12.7181 19.4138C12.9839 19.4086 13.0914 19.5123 13.0857 19.7561C13.08 20.5184 13.0857 21.2704 13.0857 22.0276Z" fill="white"/>
<path d="M14.4659 22.0016C14.4659 21.2652 14.4715 20.5287 14.4602 19.7975C14.4545 19.533 14.5507 19.4189 14.8561 19.424C15.5517 19.4344 16.253 19.4344 16.9487 19.424C17.1805 19.4189 17.271 19.507 17.271 19.7093C17.271 21.2652 17.271 22.821 17.271 24.3769C17.271 24.548 17.1862 24.6414 16.9883 24.6414C16.2587 24.6414 15.5291 24.6414 14.7995 24.6414C14.5507 24.6414 14.4602 24.5273 14.4602 24.2991C14.4715 23.5315 14.4659 22.7692 14.4659 22.0016Z" fill="white"/>
<path d="M18.7246 22.0381C18.7246 21.2913 18.7246 20.5497 18.7246 19.8029C18.7246 19.4502 18.7529 19.4295 19.1319 19.4295C19.8105 19.4295 20.4835 19.4346 21.1622 19.4243C21.428 19.4191 21.5355 19.5124 21.5355 19.7614C21.5298 21.2809 21.5298 22.8005 21.5355 24.3149C21.5355 24.5535 21.4111 24.6416 21.1735 24.6416C20.4779 24.6416 19.7766 24.6364 19.081 24.6468C18.8038 24.652 18.719 24.5431 18.719 24.3045C18.7246 23.5473 18.7246 22.7901 18.7246 22.0381Z" fill="white"/>
<path d="M25.7204 22.0381C25.7204 22.7849 25.7148 23.5266 25.7261 24.2734C25.7317 24.5431 25.6299 24.652 25.3302 24.6416C24.6628 24.6261 23.9955 24.6416 23.3338 24.6364C22.9718 24.6364 22.9209 24.5846 22.9209 24.2526C22.9209 22.7746 22.9209 21.2913 22.9209 19.8132C22.9209 19.4606 22.9605 19.4295 23.3564 19.4243C24.0237 19.4243 24.6911 19.4346 25.3528 19.4191C25.6526 19.4087 25.7317 19.528 25.7261 19.7769C25.7148 20.5289 25.7204 21.2861 25.7204 22.0381Z" fill="white"/>
</svg>
