<svg width="24" height="26" viewBox="0 0 24 26" fill="none" xmlns="http://www.w3.org/2000/svg">
<path d="M8.25 11.5833H5.75V14.0833H8.25V11.5833ZM13.25 11.5833H10.75V14.0833H13.25V11.5833ZM18.25 11.5833H15.75V14.0833H18.25V11.5833ZM20.75 2.83325H19.5V0.333252H17V2.83325H7V0.333252H4.5V2.83325H3.25C1.8625 2.83325 0.7625 3.95825 0.7625 5.33325L0.75 22.8333C0.75 24.2083 1.8625 25.3333 3.25 25.3333H20.75C22.125 25.3333 23.25 24.2083 23.25 22.8333V5.33325C23.25 3.95825 22.125 2.83325 20.75 2.83325ZM20.75 22.8333H3.25V9.08325H20.75V22.8333Z" fill="#18181B"/>
</svg>
