<svg width="19" height="18" viewBox="0 0 19 18" fill="none" xmlns="http://www.w3.org/2000/svg">
<path d="M5.04006 1.45846L3.74919 0.138462C1.58269 1.82769 0.156408 4.43077 0.0300293 7.38462H1.83545C1.97085 4.93846 3.19854 2.79692 5.04006 1.45846ZM16.2246 7.38462H18.03C17.8946 4.43077 16.4683 1.82769 14.3109 0.138462L13.029 1.45846C14.8525 2.79692 16.0892 4.93846 16.2246 7.38462ZM14.4463 7.84615C14.4463 5.01231 12.9658 2.64 10.3841 2.01231V1.38462C10.3841 0.618462 9.77928 0 9.03003 0C8.28078 0 7.67597 0.618462 7.67597 1.38462V2.01231C5.0852 2.64 3.61378 5.00308 3.61378 7.84615V12.4615L1.80836 14.3077V15.2308H16.2517V14.3077L14.4463 12.4615V7.84615ZM9.03003 18C9.15641 18 9.27376 17.9908 9.39111 17.9631C9.97787 17.8338 10.4563 17.4277 10.691 16.8738C10.7813 16.6523 10.8264 16.4123 10.8264 16.1538H7.21559C7.22461 17.1692 8.02802 18 9.03003 18Z" fill="#71717A"/>
</svg>
