<svg width="36" height="36" viewBox="0 0 36 36" fill="none" xmlns="http://www.w3.org/2000/svg">
<path d="M18 0C8.05901 0 0 8.05887 0 18C0 27.9411 8.05901 36 18 36C27.941 36 36 27.9411 36 18C36 8.05887 27.941 0 18 0ZM15.75 22.5C15.75 23.1213 15.2463 23.625 14.625 23.625H12.375C11.7537 23.625 11.25 23.1213 11.25 22.5V13.5C11.25 12.8787 11.7537 12.375 12.375 12.375H14.625C15.2463 12.375 15.75 12.8787 15.75 13.5V22.5ZM24.75 22.5C24.75 23.1213 24.2463 23.625 23.625 23.625H21.375C20.7537 23.625 20.25 23.1213 20.25 22.5V13.5C20.25 12.8787 20.7537 12.375 21.375 12.375H23.625C24.2463 12.375 24.75 12.8787 24.75 13.5V22.5Z" fill="#18181B"/>
</svg>
