<svg width="24" height="25" viewBox="0 0 24 25" fill="none" xmlns="http://www.w3.org/2000/svg">
<path d="M19.5 17.6C18.55 17.6 17.7 17.975 17.05 18.5625L8.1375 13.375C8.2 13.0875 8.25 12.8 8.25 12.5C8.25 12.2 8.2 11.9125 8.1375 11.625L16.95 6.4875C17.625 7.1125 18.5125 7.5 19.5 7.5C21.575 7.5 23.25 5.825 23.25 3.75C23.25 1.675 21.575 0 19.5 0C17.425 0 15.75 1.675 15.75 3.75C15.75 4.05 15.8 4.3375 15.8625 4.625L7.05 9.7625C6.375 9.1375 5.4875 8.75 4.5 8.75C2.425 8.75 0.75 10.425 0.75 12.5C0.75 14.575 2.425 16.25 4.5 16.25C5.4875 16.25 6.375 15.8625 7.05 15.2375L15.95 20.4375C15.8875 20.7 15.85 20.975 15.85 21.25C15.85 23.2625 17.4875 24.9 19.5 24.9C21.5125 24.9 23.15 23.2625 23.15 21.25C23.15 19.2375 21.5125 17.6 19.5 17.6Z" fill="#71717A"/>
</svg>
